<svg xmlns="http://www.w3.org/2000/svg" xmlns:xlink="http://www.w3.org/1999/xlink" viewBox="0 0 595.28 595.28"><defs><style>.cls-1,.cls-2{fill-rule:evenodd;}.cls-1{fill:url(#linear-gradient);}.cls-2{fill:url(#linear-gradient-2);}.cls-3,.cls-4,.cls-5,.cls-6{fill:none;stroke:#fff;stroke-linecap:round;}.cls-3{stroke-miterlimit:31;}.cls-3,.cls-5{stroke-width:6.2px;}.cls-4{stroke-miterlimit:31;stroke-width:6.2px;}.cls-5,.cls-6{stroke-linejoin:round;}.cls-6{stroke-width:6.2px;}</style><linearGradient id="linear-gradient" x1="-0.29" y1="718.6" x2="1.29" y2="718.6" gradientTransform="matrix(-319.43, 232.38, 273.8, 376.37, -196287.9, -270288.72)" gradientUnits="userSpaceOnUse"><stop offset="0" stop-color="#ff64dc"/><stop offset="0.5" stop-color="#000064"/><stop offset="1" stop-color="#ff64dc"/></linearGradient><linearGradient id="linear-gradient-2" x1="-0.29" y1="718.61" x2="1.29" y2="718.61" xlink:href="#linear-gradient"/></defs><title>stage-product-icons-io</title><g id="Layer_1" data-name="Layer 1"><g id="io"><path class="cls-1" d="M102.15,499.42a4.58,4.58,0,0,1-3.61-4.66V364.83L72.14,384A65.66,65.66,0,0,0,119,502.27H106.55A4.53,4.53,0,0,1,102.15,499.42Z"/><path class="cls-2" d="M560.64,109.86a65.68,65.68,0,0,0-91.72-14.47l-75.26,54.75h84.18a4.54,4.54,0,0,1,4.45,3,4.35,4.35,0,0,1,2.36,1.77c.34,0,.67,0,1,0a5,5,0,0,1,4.8,4.33,4.79,4.79,0,0,1,3.42,4.84,9.69,9.69,0,0,1,.75.92c2.63-.19,5.41,1.42,5.41,4.81v65.41l46.13-33.56A65.68,65.68,0,0,0,560.64,109.86Z"/></g></g><g id="Layer_5" data-name="Layer 5"><g id="On_White" data-name="On White"><circle class="cls-3" cx="226.23" cy="412.8" r="29.29"/><path class="cls-3" d="M196.94,412.8h-9.76"/><path class="cls-3" d="M255.52,412.8h9.77"/><path class="cls-3" d="M226.23,442.09v9.76"/><path class="cls-3" d="M226.23,383.51v-9.77"/><path class="cls-4" d="M205.59,433.44l-7,7"/><path class="cls-4" d="M247.08,392l6.77-6.77"/><path class="cls-4" d="M246.93,433.49l6.92,6.92"/><path class="cls-4" d="M205.59,392.15l-7-7"/><circle class="cls-5" cx="372.69" cy="344.49" r="58.58"/><path class="cls-3" d="M314.1,344.45H294.58"/><path class="cls-3" d="M431.27,344.45H450.8"/><path class="cls-3" d="M372.69,403v19.53"/><path class="cls-3" d="M372.69,285.87V266.34"/><path class="cls-4" d="M329.06,388.08l-11.6,11.6"/><path class="cls-4" d="M414.79,302.35l13.13-13.13"/><path class="cls-4" d="M415.1,386.86l12.82,12.82"/><path class="cls-4" d="M330.58,302.35l-13.12-13.13"/><path class="cls-5" d="M128.59,149.18H470.32a29.29,29.29,0,0,1,29.29,29.29v322.2H99.3V178.47A29.29,29.29,0,0,1,128.59,149.18Z"/><path class="cls-5" d="M99.3,217.52H499.61"/><circle class="cls-3" cx="133.48" cy="183.35" r="14.65"/><circle class="cls-3" cx="192.06" cy="183.35" r="14.65"/><circle class="cls-3" cx="250.64" cy="183.35" r="14.65"/><path class="cls-5" d="M206.7,266.34l19.53,19.53L206.7,305.4"/><path class="cls-5" d="M148.12,266.34l-19.53,19.53,19.53,19.53"/><path class="cls-6" d="M162.77,324.92l29.29-78.11"/></g></g></svg>