<svg xmlns="http://www.w3.org/2000/svg" xmlns:xlink="http://www.w3.org/1999/xlink" viewBox="0 0 595.28 595.28"><defs><style>.cls-1,.cls-2,.cls-3{fill-rule:evenodd;}.cls-1{fill:url(#linear-gradient);}.cls-2{fill:url(#linear-gradient-3);}.cls-3{fill:url(#linear-gradient-4);}.cls-4{fill:#fff;}</style><linearGradient id="linear-gradient" x1="-0.25" y1="718.51" x2="1.33" y2="718.51" gradientTransform="matrix(-260.79, 189.48, 273.3, 376.15, -196005.73, -270113.14)" gradientUnits="userSpaceOnUse"><stop offset="0" stop-color="#f42548"/><stop offset="0.46" stop-color="#0b0263"/><stop offset="1" stop-color="#f42548"/></linearGradient><linearGradient id="linear-gradient-3" x1="-0.33" y1="718.61" x2="1.25" y2="718.61" gradientTransform="matrix(-259.02, 188.43, 273.8, 376.37, -196283.47, -270230.78)" gradientUnits="userSpaceOnUse"><stop offset="0" stop-color="#190461"/><stop offset="0.46" stop-color="#f42548"/><stop offset="1" stop-color="#0e0262"/></linearGradient><linearGradient id="linear-gradient-4" x1="-0.33" y1="718.61" x2="1.25" y2="718.61" xlink:href="#linear-gradient-3"/></defs><title>stage-product-icons-simquadrat</title><g id="Layer_1" data-name="Layer 1"><g id="sim2"><path class="cls-1" d="M198.21,195.66,30.93,317.2A65.59,65.59,0,1,0,108,423.33l90.17-65.51Z"/><path class="cls-1" d="M427.06,110.46A65.63,65.63,0,0,0,335.44,96l-32.91,23.92h57.19a7,7,0,0,1,.81.06,5.71,5.71,0,0,1,.73-.05,25.55,25.55,0,0,1,8.74,1.47,17.1,17.1,0,0,1,4.68,0,4.85,4.85,0,0,1,3.34-1.43c7.67-.34,14.35,4.88,17.59,11.59.6.52,1.18,1.06,1.73,1.63a38.57,38.57,0,0,1,5.61,6.21,4,4,0,0,1,.59,4.2,25.73,25.73,0,0,1,1.23,6.92,5.09,5.09,0,0,1,.35,1.89v55.16l7.43-5.39A65.63,65.63,0,0,0,427.06,110.46Z"/><path class="cls-2" d="M213.47,494.22a5.31,5.31,0,0,1-4.69-3.29c-1.28-3-3.83-5.38-5.46-8.22a20.25,20.25,0,0,1-2.68-8.82,31.13,31.13,0,0,1,.51-8.13,5.61,5.61,0,0,1-.24-5.47,5.44,5.44,0,0,1-.23-1.51V354l-35.25,25.64a65.66,65.66,0,0,0,50.83,117.61A24.3,24.3,0,0,1,213.47,494.22Z"/><path class="cls-3" d="M558.81,174.65a65.7,65.7,0,0,0-91.72-14.47l-60.9,44.31V366.88l138.15-100.5A65.69,65.69,0,0,0,558.81,174.65Z"/></g></g><g id="Layer_6" data-name="Layer 6"><path class="cls-4" d="M301.69,474.74A17.75,17.75,0,1,0,283.94,457,17.77,17.77,0,0,0,301.69,474.74Zm0-29.29A11.55,11.55,0,1,1,290.15,457,11.56,11.56,0,0,1,301.69,445.45Z"/><path class="cls-4" d="M360.27,347.81a3.1,3.1,0,0,0,3.11-3.1V237.31a3.11,3.11,0,0,0-6.21,0v107.4A3.1,3.1,0,0,0,360.27,347.81Z"/><path class="cls-4" d="M321.22,347.81a3.1,3.1,0,0,0,3.1-3.1V256.84a3.1,3.1,0,0,0-6.2,0v87.87A3.1,3.1,0,0,0,321.22,347.81Z"/><path class="cls-4" d="M282.16,347.81a3.1,3.1,0,0,0,3.11-3.1V276.36a3.11,3.11,0,0,0-6.21,0v68.35A3.1,3.1,0,0,0,282.16,347.81Z"/><path class="cls-4" d="M243.11,347.81a3.1,3.1,0,0,0,3.1-3.1V295.92a3.1,3.1,0,1,0-6.2,0v48.79A3.1,3.1,0,0,0,243.11,347.81Z"/><path class="cls-4" d="M374.92,117.05H228.46a32.43,32.43,0,0,0-32.39,32.39v322.2A32.43,32.43,0,0,0,228.46,504H374.92a32.43,32.43,0,0,0,32.39-32.39V149.44A32.43,32.43,0,0,0,374.92,117.05Zm26.19,354.59a26.22,26.22,0,0,1-26.19,26.19H228.46a26.22,26.22,0,0,1-26.19-26.19V416.16H401.11Zm0-61.68H202.27V181.83H401.11Zm0-234.33H202.27V149.44a26.22,26.22,0,0,1,26.19-26.19H374.92a26.22,26.22,0,0,1,26.19,26.19Z"/><path class="cls-4" d="M331,146.34H272.4a3.1,3.1,0,1,0,0,6.2H331a3.1,3.1,0,0,0,0-6.2Z"/><path class="cls-4" d="M380.81,85.76h0a3.1,3.1,0,0,0,0,6.2h0a50.6,50.6,0,0,1,50.59,50.59,3.1,3.1,0,1,0,6.2,0,56.78,56.78,0,0,0-56.79-56.8Z"/><path class="cls-4" d="M382.8,57.46a3.1,3.1,0,0,0,0,6.2,80,80,0,0,1,79.89,79.9,3.1,3.1,0,1,0,6.2,0A86.19,86.19,0,0,0,382.8,57.46Z"/></g></svg>