<svg xmlns="http://www.w3.org/2000/svg" xmlns:xlink="http://www.w3.org/1999/xlink" viewBox="0 0 595.28 595.28"><defs><style>.cls-1{fill:url(#radial-gradient);}.cls-2{fill:#1086fc;}.cls-3{fill:url(#radial-gradient-2);}.cls-4{fill:url(#radial-gradient-3);}.cls-5,.cls-6,.cls-7{fill:none;stroke:#fff;stroke-linejoin:round;}.cls-5,.cls-7{stroke-linecap:round;}.cls-5,.cls-6{stroke-width:6.2px;}.cls-7{stroke-width:6.2px;}</style><radialGradient id="radial-gradient" cx="1.54" cy="719.48" r="1.57" gradientTransform="matrix(-52.74, 0, 0, 52.74, 263.54, -37624.69)" gradientUnits="userSpaceOnUse"><stop offset="0" stop-color="#000064"/><stop offset="0.1" stop-color="#000064"/><stop offset="1" stop-color="#1086fc"/></radialGradient><radialGradient id="radial-gradient-2" cx="0.53" cy="717.96" r="1.57" gradientTransform="matrix(-65.14, 0, 0, 65.14, 400.36, -46610.01)" xlink:href="#radial-gradient"/><radialGradient id="radial-gradient-3" cx="0.04" cy="719.24" r="1.57" gradientTransform="matrix(-88.95, 0, 0, 88.95, 453.98, -63541.96)" xlink:href="#radial-gradient"/></defs><title>stage-product-icons-teammobil</title><g id="Layer_1" data-name="Layer 1"><g id="teamMobile"><g id="team1"><g id="Pattern-Editing-Mode"><path class="cls-1" d="M201.57,238a83.05,83.05,0,0,0-72.34,144.76l72.34-52.6Z"/><path class="cls-2" d="M201.57,330.13l-72.38,52.59a83,83,0,0,0,72.38,16.75Z"/><path class="cls-3" d="M382.45,120.07a4.7,4.7,0,0,1,4.1,1.34c.85.8,1.68,1.6,2.52,2.41l49.47-35.93a102.62,102.62,0,0,0-166.47,31.64H380.14A4.87,4.87,0,0,1,382.45,120.07Z"/><path class="cls-2" d="M438.5,87.88l-49.45,35.93c7.55,7.3,14.32,14.84,17.29,25.3a4.53,4.53,0,0,1-.64,4.08v102A102.6,102.6,0,0,0,438.5,87.88Z"/><path class="cls-4" d="M537.37,322.24,405.7,418v57a4.52,4.52,0,0,1-2.35,4.16,61.63,61.63,0,0,1-4.82,11.18c-2.24,3.83-5.68,6.31-9.38,8.63a4.38,4.38,0,0,1-4.51.29,5.07,5.07,0,0,1-.8.07H327.49a140.09,140.09,0,1,0,209.88-177Z"/><path class="cls-2" d="M405.7,418l131.73-95.71A140.27,140.27,0,0,0,405.7,299.22Z"/></g></g></g></g><g id="Layer_3" data-name="Layer 3"><path class="cls-5" d="M361.26,236.76v107.4"/><path class="cls-5" d="M322.2,344.16V256.29"/><path class="cls-5" d="M283.15,344.16V275.82"/><path class="cls-5" d="M244.09,344.16V295.37"/><path class="cls-6" d="M200.16,178.18h205"/><path class="cls-6" d="M405.19,412.51h-205"/><circle class="cls-5" cx="302.68" cy="456.45" r="14.65"/><path class="cls-5" d="M375.9,500.38H229.45a29.3,29.3,0,0,1-29.29-29.29V148.89a29.3,29.3,0,0,1,29.29-29.29H375.9a29.3,29.3,0,0,1,29.3,29.29v322.2A29.3,29.3,0,0,1,375.9,500.38Z"/><path class="cls-5" d="M273.39,148.89H332"/><path class="cls-7" d="M380.79,90.31a53.7,53.7,0,0,1,53.7,53.7"/><path class="cls-7" d="M380.79,61a83,83,0,0,1,83,83"/></g></svg>