<svg xmlns="http://www.w3.org/2000/svg" xmlns:xlink="http://www.w3.org/1999/xlink" viewBox="0 0 595.28 595.28"><defs><style>.cls-1{fill:url(#radial-gradient);}.cls-2{fill:#1086fc;}.cls-3{fill:url(#radial-gradient-2);}.cls-4{fill:url(#radial-gradient-3);}.cls-5,.cls-6,.cls-7{fill:none;stroke:#fff;stroke-width:6.2px;}.cls-5{stroke-linecap:round;}.cls-5,.cls-6{stroke-linejoin:round;}.cls-7{stroke-miterlimit:31;}</style><radialGradient id="radial-gradient" cx="-0.25" cy="717.83" r="1.57" gradientTransform="matrix(52.74, 0, 0, -52.74, 490.13, 38223.08)" gradientUnits="userSpaceOnUse"><stop offset="0" stop-color="#000064"/><stop offset="0.1" stop-color="#000064"/><stop offset="1" stop-color="#1086fc"/></radialGradient><radialGradient id="radial-gradient-2" cx="-1.41" cy="717.35" r="1.57" gradientTransform="matrix(65.14, 0, 0, -65.14, 353.31, 47208.41)" xlink:href="#radial-gradient"/><radialGradient id="radial-gradient-3" cx="-1.38" cy="718.8" r="1.57" gradientTransform="matrix(88.95, 0, 0, -88.95, 299.68, 64140.35)" xlink:href="#radial-gradient"/></defs><title>stage-product-icons-team</title><g id="Layer_1" data-name="Layer 1"><g id="team"><g id="team1"><g id="Pattern-Editing-Mode"><path class="cls-1" d="M529.9,302.42,475.43,342v94.18a4.65,4.65,0,0,1,1.29,3.36v9.9H477a83,83,0,0,0,52.93-147Z"/><path class="cls-2" d="M475.43,342.06l54.51-39.6A82.72,82.72,0,0,0,477,283.4c-.53,0-1.05,0-1.58,0Z"/><path class="cls-3" d="M261.78,500.06v17.65c0,5.3-6.76,6.23-9.16,2.82H229.76l-40.67,29.52a102.61,102.61,0,0,0,172.49-50Z"/><path class="cls-2" d="M177.73,520.53a4.52,4.52,0,0,1-4.26-2.55,4.85,4.85,0,0,1-.74-2.67c0-5.08.13-10.16.19-15.25H161.49a102.44,102.44,0,0,0,27.65,50l40.65-29.53Z"/><path class="cls-4" d="M173.73,199.17a4.71,4.71,0,0,1,3.11-1.06H252L308.58,157A140.11,140.11,0,1,0,90.27,315.7l32-23.23V247a4.54,4.54,0,0,1,2.44-4.21,21.92,21.92,0,0,1,1-4.87c0-.25,0-.5.06-.76a4.74,4.74,0,0,1,1.9-3.74,32.1,32.1,0,0,1,4.32-6.18,13.17,13.17,0,0,1,6.65-4.34c2.38-3,6.92-4.15,11.45-4.64a4.64,4.64,0,0,1,3.48-1.41h17.87V203.31A4.53,4.53,0,0,1,173.73,199.17Z"/><path class="cls-2" d="M122.23,292.4l-32,23.27a140.31,140.31,0,0,0,32,19.11Z"/><path class="cls-2" d="M308.52,157.05,252,198.11h4.35a4.53,4.53,0,0,1,4.14,2.3,4.68,4.68,0,0,1,1.07,3.11v13.37h55.32c.27-3.61.42-7.26.42-10.94A139.63,139.63,0,0,0,308.52,157.05Z"/></g></g></g></g><g id="Layer_4" data-name="Layer 4"><g id="On_White" data-name="On White"><path class="cls-5" d="M407.4,217.65l29.29-31.73L466,217.65"/><path class="cls-5" d="M436.69,266.47V185.92"/><path class="cls-6" d="M173.07,500.8H153.54a29.29,29.29,0,0,1-29.29-29.29V246.94a29.3,29.3,0,0,1,29.29-29.29h19.53"/><path class="cls-6" d="M475.74,246.94V471.51a29.29,29.29,0,0,1-29.29,29.29H260.94"/><path class="cls-6" d="M260.94,217.65h78.11"/><path class="cls-5" d="M260.94,276.23V198.12H173.07v78.11H192.6v166H173.07v78.11h87.87V442.22H241.41v-166Z"/><rect class="cls-5" x="300" y="246.94" width="136.69" height="78.11"/><path class="cls-5" d="M417.16,442.22h19.53"/><path class="cls-5" d="M358.58,442.22h19.53"/><path class="cls-5" d="M417.16,403.16h19.53"/><path class="cls-5" d="M358.58,403.16h19.53"/><path class="cls-5" d="M300,403.16h19.52"/><path class="cls-5" d="M300,442.22h19.52"/><path class="cls-5" d="M417.16,364.11h19.53"/><path class="cls-5" d="M358.58,364.11h19.53"/><path class="cls-5" d="M300,364.11h19.52"/><path class="cls-7" d="M523.67,187.39c-6.36-6.26-13.9-9-23.48-8.95l-9.65,0C483.9,155,461.42,134.89,436.13,135c-28.83.08-53.34,24.67-55.81,53.17l-12.79,0c-16.65,0-28.53,12.64-28.48,29.48S352,247,368.63,247l67.83-.2L497,247c19.43-.06,37.39-14.55,37.34-34.2A35.66,35.66,0,0,0,523.67,187.39Z"/></g></g></svg>