<svg xmlns="http://www.w3.org/2000/svg" xmlns:xlink="http://www.w3.org/1999/xlink" viewBox="0 0 595.28 595.28"><defs><style>.cls-1{fill:url(#radial-gradient);}.cls-2{fill:#ff8b00;}.cls-3{fill:url(#radial-gradient-2);}.cls-4{fill:none;stroke:#fff;stroke-linecap:round;stroke-linejoin:round;stroke-width:6.2px;}</style><radialGradient id="radial-gradient" cx="0.23" cy="718.57" r="1.57" gradientTransform="matrix(-187.7, 0, 0, 187.7, 225.83, -134558.62)" gradientUnits="userSpaceOnUse"><stop offset="0" stop-color="#000064"/><stop offset="0.1" stop-color="#000064"/><stop offset="1" stop-color="#ff8b00"/></radialGradient><radialGradient id="radial-gradient-2" cx="0.26" cy="719.23" r="1.57" gradientTransform="matrix(115.8, 0, 0, -115.8, 353.9, 83409.2)" xlink:href="#radial-gradient"/></defs><title>stage-product-icons-basic</title><g id="Layer_1" data-name="Layer 1"><g id="basic"><g id="basic1"><g id="Pattern-Editing-Mode"><path class="cls-1" d="M40.09,392.92a160.8,160.8,0,0,0,39.5,49.64,4.5,4.5,0,0,1,3.51-3,5.38,5.38,0,0,1,.3-7.85,5.44,5.44,0,0,1,.88-6.59c-1.83-2.79-.7-7.49,3.37-7.92a5.14,5.14,0,0,1,1.1-2.5c-.22-2.65,1.37-5.48,4.8-5.48h.11a4.82,4.82,0,0,1,3.4-5.11c-.22-2.65,1.38-5.48,4.8-5.48a4.41,4.41,0,0,1,3.09-2.24,4.51,4.51,0,0,1,4.2-3c-.14-2.6,1.46-5.31,4.81-5.31a4.69,4.69,0,0,1,3.17,1.12,4.67,4.67,0,0,1,3.26-1.19,6.08,6.08,0,0,1,.61,0,5.74,5.74,0,0,1,.6,0l.33,0a4.64,4.64,0,0,1,3.45-1.38,5,5,0,0,1,.88.07,4.64,4.64,0,0,1,3.35-1.28,4.71,4.71,0,0,1,3.15,1.09,4.71,4.71,0,0,1,2.45-.77,5.33,5.33,0,0,1,1.36-.17h.19a4.61,4.61,0,0,1,3.44-1.37,5.3,5.3,0,0,1,1.48.2V319.12Z"/><path class="cls-2" d="M141.68,164.87A160.42,160.42,0,0,0,40,392.92L141.68,319Z"/><path class="cls-3" d="M477.53,74.05A104.61,104.61,0,0,0,279.91,119h33.9a4.54,4.54,0,0,1,4.47,3c10.81,1,18.67,7.79,23.54,17.49a5.07,5.07,0,0,1,.57,2.73,4.89,4.89,0,0,1,.85,2.85v7.47a4.53,4.53,0,0,1,1.95,3.91v13.81Z"/><path class="cls-2" d="M477.54,74.13,345.19,170.29v48.43A104.62,104.62,0,0,0,477.54,74.13Z"/></g></g></g></g><g id="Layer_7" data-name="Layer 7"><g id="On_White" data-name="On White"><rect class="cls-4" x="173.73" y="178.58" width="136.69" height="97.64"/><circle class="cls-4" cx="242.08" cy="427.56" r="14.65"/><path class="cls-4" d="M315.3,471.49H168.85a29.29,29.29,0,0,1-29.29-29.29V149.29A29.3,29.3,0,0,1,168.85,120H315.3a29.3,29.3,0,0,1,29.3,29.29V442.2A29.29,29.29,0,0,1,315.3,471.49Z"/><path class="cls-4" d="M222.55,149.29H261.6"/><path class="cls-4" d="M344.6,383.62H461.76a58.59,58.59,0,0,1,0,117.17H139.56a58.59,58.59,0,0,1,0-117.17"/><path class="cls-4" d="M290.9,383.62h19.52"/><path class="cls-4" d="M232.31,383.62h19.53"/><path class="cls-4" d="M290.9,344.57h19.52"/><path class="cls-4" d="M232.31,344.57h19.53"/><path class="cls-4" d="M173.73,344.57h19.53"/><path class="cls-4" d="M173.73,383.62h19.53"/><path class="cls-4" d="M290.9,305.51h19.52"/><path class="cls-4" d="M232.31,305.51h19.53"/><path class="cls-4" d="M173.73,305.51h19.53"/><path class="cls-4" d="M452,452H412.94"/><path class="cls-4" d="M452,427.56H412.94"/></g></g></svg>