<svg xmlns="http://www.w3.org/2000/svg" xmlns:xlink="http://www.w3.org/1999/xlink" viewBox="0 0 595.28 595.28"><defs><style>.cls-1{fill:url(#linear-gradient);}.cls-2{fill:url(#linear-gradient-2);}.cls-3{fill:url(#linear-gradient-3);}.cls-4{fill:url(#linear-gradient-4);}.cls-5{fill:url(#linear-gradient-5);}.cls-6,.cls-7,.cls-8{fill:none;stroke:#fff;stroke-width:6.2px;}.cls-6,.cls-7{stroke-linecap:round;}.cls-6{stroke-linejoin:round;}.cls-7,.cls-8{stroke-miterlimit:31;}</style><linearGradient id="linear-gradient" x1="0.18" y1="719.01" x2="1.76" y2="719.01" gradientTransform="matrix(127.87, 0, 0, -127.87, 328.14, 92124.78)" gradientUnits="userSpaceOnUse"><stop offset="0" stop-color="#0ccc06"/><stop offset="0.1" stop-color="#0ccc06"/><stop offset="1" stop-color="#000064"/></linearGradient><linearGradient id="linear-gradient-2" x1="0.12" y1="719.32" x2="1.7" y2="719.32" gradientTransform="matrix(127.87, 0, 0, -127.87, 314.59, 92095.89)" gradientUnits="userSpaceOnUse"><stop offset="0" stop-color="#000064"/><stop offset="0.9" stop-color="#0ccc06"/><stop offset="1" stop-color="#0ccc06"/></linearGradient><linearGradient id="linear-gradient-3" x1="-0.53" y1="718.58" x2="1.05" y2="718.58" gradientTransform="matrix(177.6, 0, 0, -177.6, 124.84, 127940.98)" xlink:href="#linear-gradient-2"/><linearGradient id="linear-gradient-4" x1="-0.46" y1="718.72" x2="1.11" y2="718.72" gradientTransform="matrix(177.6, 0, 0, -177.6, 143.54, 127981.49)" xlink:href="#linear-gradient"/><linearGradient id="linear-gradient-5" x1="-0.46" y1="718.09" x2="1.11" y2="718.09" gradientTransform="matrix(177.6, 0, 0, -177.6, 143.54, 127981.49)" xlink:href="#linear-gradient"/></defs><title>stage-product-icons-trunking-01</title><g id="Layer_1" data-name="Layer 1"><g id="trunking"><g id="Pattern-Editing-Mode"><path class="cls-1" d="M531.83,101.16,425.86,178c1,.17,2.05.33,3.07.53,4.85.94,9.95.9,14.54,2.84,4.4,1.86,8.37,4.61,12.72,6.61,3.92,1.81,12,5.77,13.28,11a5.29,5.29,0,0,1,2.58,4.22c4,3.78,8.41,6.27,10.57,11.72s3.18,12.17,4.43,18.07a66.16,66.16,0,0,1,1.67,18.65c-.5,6.06-3.87,11.47-4.08,17.52a111.23,111.23,0,0,0,47.19-168Z"/><path class="cls-2" d="M441.75,55.2a111.4,111.4,0,0,0-97.18,56.93c5.68,1,10.35,3.58,15.18,7.14,5.55,4.09,9.63,9.25,14.64,13.9s10.79,8.62,14,15.06c1.47,3,2.45,6.11,4,9a4.79,4.79,0,0,1,1.13,1.27c1.24,2,2.58,4,3.94,5.9.78,1,1.55,2.08,2.23,3.18a4.36,4.36,0,0,1-.53,5.7c.54,1,1.06,2,1.51,3A168.69,168.69,0,0,1,425.77,178l106.05-76.94A111,111,0,0,0,441.75,55.2Z"/><path class="cls-3" d="M121.67,380.83c5.38-9,15.57-15.51,25.88-17,7.13-1.05,15.56-2.54,22.47,0l67.75-49.14H190.86a4.84,4.84,0,0,1-2.89.87c-9.54-.06-19.06-.7-28.6-.89a36,36,0,0,1-18.74-5.4c-5.36-3.16-11-5.77-15.31-10.46-3.85-4.23-8.71-8.51-10.88-13.89a106.4,106.4,0,0,1-6.38-20.9,46.31,46.31,0,0,1,1.32-21.15c3.15-11.51,6.81-26.42,18.43-32.35,2.8-1.43,5.83-2.23,8.69-3.46,2-.87,3.83-2,5.74-3.06A154.52,154.52,0,0,0,61,443l58.18-42.21C117.67,394.06,117.79,387.33,121.67,380.83Z"/><path class="cls-4" d="M340.36,363c.25-3.58.39-7.18.4-10.82a157.18,157.18,0,0,0-4.59-37.3H237.7L171.36,363Z"/><path class="cls-5" d="M146,500.44a4.68,4.68,0,0,1-2.81-3.63,6,6,0,0,1-1-.08,24.13,24.13,0,0,1-16.64-12.9c-1.45-3.14-3.83-5.51-5-8.78a33.49,33.49,0,0,1-2.31-11.86c.14-8.17,5.79-15.19,11-21,2.77-3.09,5.38-6.42,8.57-9.09a16.73,16.73,0,0,1,3.65-2.33c-3.24-1.12-6.31-3.24-9.14-4.77-4.2-2.28-6.09-5.64-7.87-10a95.37,95.37,0,0,1-5.25-15.21L61,443a154.33,154.33,0,0,0,84.42,58.31A5.26,5.26,0,0,1,146,500.44Z"/></g></g></g><g id="Layer_2" data-name="Layer 2"><g id="On_White" data-name="On White"><path class="cls-6" d="M298.83,358.69V197.59"/><path class="cls-6" d="M147.49,466.09H167"/><path class="cls-6" d="M147.49,397.75H167"/><path class="cls-6" d="M250,256.17l48.82-58.58,48.82,58.58"/><circle class="cls-7" cx="445.16" cy="466.09" r="14.65"/><path class="cls-8" d="M445.16,500.26H152.25a34.17,34.17,0,1,1,0-68.34H445.16a34.17,34.17,0,0,1,0,68.34Z"/><circle class="cls-7" cx="445.16" cy="397.75" r="14.65"/><path class="cls-8" d="M445.16,431.92H152.25a34.18,34.18,0,1,1,0-68.35H445.16a34.18,34.18,0,0,1,0,68.35Z"/><path class="cls-8" d="M468.51,197.09a68.08,68.08,0,0,0-47.85-19.38l-18.77,0a107.35,107.35,0,0,0-210.15,20.15l-24.88.07a58.58,58.58,0,1,0,.35,117.16l131.8-.39,122.05-.35a68.32,68.32,0,0,0,47.45-117.31Z"/></g></g></svg>